<?xml version="1.0" encoding="UTF-8" standalone="no"?>
<svg
   id="a"
   data-name="Layer 1"
   width="3.09in"
   height="3.1in"
   viewBox="0 0 222.32 222.84"
   version="1.1"
   sodipodi:docname="Spiri_logo_Mixed_dual_background.svg"
   inkscape:version="1.3.2 (091e20ef0f, 2023-11-25)"
   xmlns:inkscape="http://www.inkscape.org/namespaces/inkscape"
   xmlns:sodipodi="http://sodipodi.sourceforge.net/DTD/sodipodi-0.dtd"
   xmlns="http://www.w3.org/2000/svg"
   xmlns:svg="http://www.w3.org/2000/svg">
  <sodipodi:namedview
     id="namedview9"
     pagecolor="#2a2a2a"
     bordercolor="#000000"
     borderopacity="0.25"
     inkscape:showpageshadow="2"
     inkscape:pageopacity="0.0"
     inkscape:pagecheckerboard="false"
     inkscape:deskcolor="#d1d1d1"
     inkscape:document-units="in"
     inkscape:zoom="1.9556452"
     inkscape:cx="28.890721"
     inkscape:cy="81.30309"
     inkscape:window-width="3440"
     inkscape:window-height="1368"
     inkscape:window-x="0"
     inkscape:window-y="0"
     inkscape:window-maximized="1"
     inkscape:current-layer="a" />
  <defs
     id="defs1">
    <inkscape:path-effect
       effect="offset"
       id="path-effect17"
       is_visible="true"
       lpeversion="1.2"
       linejoin_type="extrp_arc"
       unit="mm"
       offset="1.5"
       miter_limit="4"
       attempt_force_join="false"
       update_on_knot_move="true" />
    <inkscape:path-effect
       effect="offset"
       id="path-effect15"
       is_visible="true"
       lpeversion="1.2"
       linejoin_type="miter"
       unit="mm"
       offset="0.2"
       miter_limit="4"
       attempt_force_join="false"
       update_on_knot_move="true" />
    <style
       id="style1">
      .b, .c, .d, .e, .f {
        stroke-width: 0px;
      }

      .c {
        fill: #fac529;
      }

      .d {
        fill: #899ca3;
      }

      .e {
        fill: #dd5935;
      }

      .f {
        fill: #9edfec;
      }
    </style>
  </defs>
  <g
     id="g16"
     style="fill:#ffffff;stroke-width:2.83261;stroke-dasharray:none"
     inkscape:path-effect="#path-effect17"
     transform="translate(-7.4946066)">
    <g
       id="g5"
       style="fill:#ffffff;stroke-width:2.83261;stroke-dasharray:none">
      <path
         class="b"
         d="m 131.86914,80.3125 c -9.94688,0 -18.75781,6.005485 -18.75781,16.597656 0,7.252274 3.632,11.086014 7.88476,13.296874 l -10.96679,4.29102 a 19.475866,19.475866 0 0 0 0.76562,3.91211 c 2.84162,9.31785 11.65754,13.16009 20.51758,13.25 a 27.607945,27.607945 0 0 0 0.30664,0.0176 c 10.91545,0 20.20898,-6.47267 20.20898,-16.94726 10e-6,-8.67538 -4.89422,-12.63518 -10.04687,-14.732423 l 9.9375,-3.878906 a 16.562061,16.562061 0 0 0 -0.70898,-3.951172 C 148.41423,83.756783 140.00663,80.3125 131.86914,80.3125 Z m -0.29883,15.025391 c 2.73036,0 4.0149,0.768921 4.81836,2.49414 a 6.4697984,6.4697984 0 0 1 0.22656,0.556641 c -1.76693,-0.422692 -3.36478,-0.728975 -4.53906,-1.044922 -1.23283,-0.329007 -2.07505,-0.594982 -2.70898,-0.917969 -0.0614,-0.03127 -0.10908,-0.0588 -0.15625,-0.08594 0.1828,-0.606325 0.98242,-1.001953 2.35937,-1.001953 z m -5.98047,16.681639 c 0.71704,0.21232 1.42428,0.40162 2.10352,0.56641 6.11052,1.48245 8.08789,1.87571 8.08789,2.66406 0,0.38129 -1.03106,1.23242 -3.91211,1.23242 -3.10014,0 -5.22509,-1.43957 -6.07617,-3.59961 a 5.5788304,5.5788304 0 0 1 -0.20313,-0.86328 z"
         id="path1"
         style="fill:#ffffff;stroke-width:2.83261;stroke-dasharray:none"
         inkscape:original-d="m 131.63,127.42 c -7.63,0 -14.62,-3.2 -16.77,-10.25 l 6.98,-2.73 c 1.58,4.01 5.37,6.29 10.03,6.29 4.19,0 8.16,-1.63 8.16,-5.48 0,-9.67 -22.67,-2.33 -22.67,-18.34 0,-7.81 6.46,-12.35 14.51,-12.35 6.92,0 13.21,2.8 15.08,8.86 l -6.71,2.62 c -1.63,-3.5 -4.66,-4.95 -8.67,-4.95 -3.38,0 -6.65,1.81 -6.65,5.53 0,2.91 2.8,3.96 6.06,4.83 6.69,1.8 16.6,2.27 16.6,13.28 0,7.63 -6.81,12.7 -15.96,12.7 z" />
      <path
         class="b"
         d="m 165.78906,92.132812 c -1.32101,10e-7 -2.75404,0.221181 -4.1914,0.66211 v -0.08203 h -15.42579 v 49.564449 h 15.59571 V 131.2793 c 1.10513,0.28799 2.27621,0.44922 3.50195,0.44922 8.78423,0 16.5293,-5.80319 16.5293,-16.36914 v -7.21875 c 0,-10.057811 -7.2405,-16.007818 -16.00977,-16.007818 z m -1.91992,14.615238 c 1.64304,0 2.22266,0.59988 2.22266,1.46289 v 0.01 7.38868 c 0,1.47232 -1.00802,1.63281 -1.98243,1.63281 -1.70605,0 -2.34179,-0.62283 -2.34179,-1.52149 v -6.93164 c 0,-1.81121 1.25502,-2.04101 2.10156,-2.04101 z"
         id="path2"
         style="fill:#ffffff;stroke-width:2.83261;stroke-dasharray:none"
         inkscape:original-d="m 165.27,127.48 c -3.33,0 -6.05,-1.69 -7.57,-3.67 h -0.18 v 14.22 h -7.1 V 96.96 h 6.93 v 3.44 h 0.06 c 2.33,-2.8 5.71,-4.02 8.38,-4.02 6.53,0 11.76,4.13 11.76,11.76 v 7.22 c 0,8.1 -5.64,12.12 -12.28,12.12 z m 5.07,-19.27 c 0,-3.61 -2.8,-5.71 -6.47,-5.71 -2.97,0 -6.35,1.98 -6.35,6.29 v 6.93 c 0,3.61 2.91,5.77 6.59,5.77 2.96,0 6.23,-1.58 6.23,-5.88 v -7.39 z" />
      <path
         class="b"
         d="m 176.32227,92.712891 v 38.314449 h 15.5957 V 92.712891 Z"
         id="path3"
         style="fill:#ffffff;stroke-width:2.83261;stroke-dasharray:none"
         inkscape:original-d="M 180.57,126.78 V 96.96 h 7.1 v 29.82 z" />
      <path
         class="b"
         d="m 209.01953,92.132812 c -1.81042,0 -3.74766,0.422292 -5.60156,1.173829 v -0.59375 h -15.42578 v 38.314449 h 15.60547 v -19.51757 c 0,-2.38736 0.98885,-3.55836 3.5,-4.20508 0.30793,-0.0792 1.17695,-0.16602 1.62304,-0.16602 0.99095,0 1.39431,0.0109 1.87305,0.10352 l 5.05469,0.97851 V 94.304687 a 6.4823282,6.4823282 0 0 0 -3.32032,-1.90039 c -1.09751,-0.245497 -2.55874,-0.271485 -3.30859,-0.271485 z"
         id="path4"
         style="fill:#ffffff;stroke-width:2.83261;stroke-dasharray:none"
         inkscape:original-d="m 208.72,102.89 c -0.69,0 -1.98,0.12 -2.68,0.3 -4.31,1.11 -6.69,3.73 -6.69,8.32 v 15.27 h -7.11 V 96.96 h 6.93 v 4.95 h 0.12 c 1.75,-3.15 6.17,-5.53 9.73,-5.53 0.75,0 1.62,0 2.38,0.17 v 6.52 c -0.93,-0.18 -1.69,-0.18 -2.68,-0.18 z" />
      <path
         class="b"
         d="m 210.5918,92.712891 v 38.314449 h 15.5957 V 92.712891 Z"
         id="path5"
         style="fill:#ffffff;stroke-width:2.83261;stroke-dasharray:none"
         inkscape:original-d="M 214.84,126.78 V 96.96 h 7.1 v 29.82 z" />
    </g>
    <path
       class="b"
       x="180.57001"
       y="87.440002"
       width="7.0999999"
       height="6.3499999"
       id="path15"
       style="fill:#ffffff;stroke-width:2.83261;stroke-dasharray:none"
       sodipodi:type="rect"
       d="m 176.32227,83.191406 v 14.845703 h 15.5957 V 83.191406 Z" />
    <path
       class="b"
       x="214.84"
       y="87.440002"
       width="7.0999999"
       height="6.3499999"
       id="path16"
       style="fill:#ffffff;stroke-width:2.83261;stroke-dasharray:none"
       sodipodi:type="rect"
       d="m 210.5918,83.191406 v 14.845703 h 15.5957 V 83.191406 Z" />
  </g>
  <g
     id="g15"
     style="fill:#000000;stroke-width:2.83261;stroke-dasharray:none"
     inkscape:path-effect="#path-effect15"
     transform="translate(-7.4946066)">
    <g
       id="g14"
       style="fill:#000000;stroke-width:2.83261;stroke-dasharray:none">
      <path
         class="b"
         d="m 131.86914,83.994141 c -8.3029,0 -15.07617,4.735073 -15.07617,12.916015 0,16.450234 22.66992,9.398774 22.66992,18.339844 0,3.41184 -3.5691,4.91406 -7.59375,4.91406 -4.45201,0 -8.01914,-2.16831 -9.50195,-5.93164 l -0.20703,-0.52734 -7.9961,3.1289 0.1543,0.50196 c 2.10099,6.8893 8.58343,10.20581 15.80078,10.60742 l -0.0644,0.0527 h 1.56445 c 9.38538,0 16.52734,-5.25636 16.52734,-13.26562 0,-11.51988 -10.4958,-12.07286 -17.01953,-13.82813 -3.22243,-0.85997 -5.64062,-1.804833 -5.64062,-4.283199 0,-3.325703 2.94407,-4.962891 6.08398,-4.962891 3.83938,0 6.63646,1.357737 8.15625,4.621094 l 0.22461,0.482422 7.69531,-3.003907 -0.15625,-0.503906 c -1.96673,-6.373481 -8.53877,-9.257812 -15.62109,-9.257812 z"
         id="path10"
         style="fill:#000000;stroke-width:2.83261;stroke-dasharray:none"
         inkscape:original-d="m 131.63,127.42 c -7.63,0 -14.62,-3.2 -16.77,-10.25 l 6.98,-2.73 c 1.58,4.01 5.37,6.29 10.03,6.29 4.19,0 8.16,-1.63 8.16,-5.48 0,-9.67 -22.67,-2.33 -22.67,-18.34 0,-7.81 6.46,-12.35 14.51,-12.35 6.92,0 13.21,2.8 15.08,8.86 l -6.71,2.62 c -1.63,-3.5 -4.66,-4.95 -8.67,-4.95 -3.38,0 -6.65,1.81 -6.65,5.53 0,2.91 2.8,3.96 6.06,4.83 6.69,1.8 16.6,2.27 16.6,13.28 0,7.63 -6.81,12.7 -15.96,12.7 z" />
      <path
         class="b"
         d="m 165.78906,95.814453 c -2.476,0 -5.51885,0.999271 -7.87304,3.222656 v -2.642578 h -8.0625 V 138.5957 h 8.23242 v -13.49804 c 1.68749,1.67258 4.20715,2.94921 7.18359,2.94921 6.92589,0 12.84766,-4.25872 12.84766,-12.68749 v -7.21875 c 0,-7.9537 -5.49957,-12.326177 -12.32813,-12.326177 z m -1.91992,7.251957 c 3.39973,0 5.9043,1.9008 5.9043,5.14453 v 0.01 7.38868 c 0,3.94092 -2.95621,5.31445 -5.66407,5.31445 -3.4168,0 -6.02343,-1.95465 -6.02343,-5.20313 v -6.93164 c 0,-3.97682 3.09633,-5.72265 5.7832,-5.72265 z"
         id="path11"
         style="fill:#000000;stroke-width:2.83261;stroke-dasharray:none"
         inkscape:original-d="m 165.27,127.48 c -3.33,0 -6.05,-1.69 -7.57,-3.67 h -0.18 v 14.22 h -7.1 V 96.96 h 6.93 v 3.44 h 0.06 c 2.33,-2.8 5.71,-4.02 8.38,-4.02 6.53,0 11.76,4.13 11.76,11.76 v 7.22 c 0,8.1 -5.64,12.12 -12.28,12.12 z m 5.07,-19.27 c 0,-3.61 -2.8,-5.71 -6.47,-5.71 -2.97,0 -6.35,1.98 -6.35,6.29 v 6.93 c 0,3.61 2.91,5.77 6.59,5.77 2.96,0 6.23,-1.58 6.23,-5.88 v -7.39 z" />
      <path
         class="b"
         d="M 180.00391,96.394531 V 127.3457 h 8.23242 V 96.394531 Z"
         id="path12"
         style="fill:#000000;stroke-width:2.83261;stroke-dasharray:none"
         inkscape:original-d="M 180.57,126.78 V 96.96 h 7.1 v 29.82 z" />
      <path
         class="b"
         d="m 209.01953,95.814453 c -3.22109,0 -7.0826,1.836621 -9.2832,4.468747 v -3.888669 h -8.0625 V 127.3457 h 8.24219 v -15.83593 c 0,-4.29631 2.19352,-6.72326 6.26367,-7.77149 0.64772,-0.16656 1.88354,-0.28125 2.54101,-0.28125 0.99013,0 1.70244,0.002 2.57227,0.16992 l 0.67383,0.13086 v -7.660154 l -0.44336,-0.09961 c -0.8275,-0.185099 -1.75394,-0.183594 -2.50391,-0.183594 z"
         id="path13"
         style="fill:#000000;stroke-width:2.83261;stroke-dasharray:none"
         inkscape:original-d="m 208.72,102.89 c -0.69,0 -1.98,0.12 -2.68,0.3 -4.31,1.11 -6.69,3.73 -6.69,8.32 v 15.27 h -7.11 V 96.96 h 6.93 v 4.95 h 0.12 c 1.75,-3.15 6.17,-5.53 9.73,-5.53 0.75,0 1.62,0 2.38,0.17 v 6.52 c -0.93,-0.18 -1.69,-0.18 -2.68,-0.18 z" />
      <path
         class="b"
         d="M 214.27344,96.394531 V 127.3457 h 8.23242 V 96.394531 Z"
         id="path14"
         style="fill:#000000;stroke-width:2.83261;stroke-dasharray:none"
         inkscape:original-d="M 214.84,126.78 V 96.96 h 7.1 v 29.82 z" />
    </g>
    <path
       class="b"
       x="180.57001"
       y="87.440002"
       width="7.0999999"
       height="6.3499999"
       id="rect14"
       style="fill:#000000;stroke-width:2.83261;stroke-dasharray:none"
       sodipodi:type="rect"
       d="m 180.00391,86.873047 v 7.482422 h 8.23242 v -7.482422 z" />
    <path
       class="b"
       x="214.84"
       y="87.440002"
       width="7.0999999"
       height="6.3499999"
       id="rect15"
       style="fill:#000000;stroke-width:2.83261;stroke-dasharray:none"
       sodipodi:type="rect"
       d="m 214.27344,86.873047 v 7.482422 h 8.23242 v -7.482422 z" />
  </g>
  <path
     class="c"
     d="m12.37,24.77C5.54,24.77,0,19.22,0,12.38S5.54,0,12.37,0s12.38,5.54,12.38,12.38-5.54,12.39-12.38,12.39Z"
     id="path6" />
  <path
     class="f"
     d="m12.37,222.84c-6.83,0-12.37-5.55-12.37-12.39s5.54-12.38,12.37-12.38,12.38,5.55,12.38,12.38-5.54,12.39-12.38,12.39Z"
     id="path7" />
  <path
     class="e"
     d="m209.94,24.77c-6.84,0-12.37-5.55-12.37-12.39s5.53-12.38,12.37-12.38,12.37,5.54,12.37,12.38-5.54,12.39-12.37,12.39Z"
     id="path8" />
  <path
     class="d"
     d="m209.94,222.84c-6.84,0-12.37-5.55-12.37-12.39s5.53-12.38,12.37-12.38,12.37,5.55,12.37,12.38-5.54,12.39-12.37,12.39Z"
     id="path9" />
</svg>
